<?xml version="1.0" encoding="utf-8"?>
<!-- Generator: Adobe Illustrator 25.2.0, SVG Export Plug-In . SVG Version: 6.00 Build 0)  -->
<svg version="1.1"
	 id="svg3001" inkscape:version="0.48.3.1 r9886" sodipodi:docname="chevron_down_font_awesome.svg" xmlns:cc="http://creativecommons.org/ns#" xmlns:dc="http://purl.org/dc/elements/1.1/" xmlns:inkscape="http://www.inkscape.org/namespaces/inkscape" xmlns:rdf="http://www.w3.org/1999/02/22-rdf-syntax-ns#" xmlns:sodipodi="http://sodipodi.sourceforge.net/DTD/sodipodi-0.dtd" xmlns:svg="http://www.w3.org/2000/svg"
	 xmlns="http://www.w3.org/2000/svg" xmlns:xlink="http://www.w3.org/1999/xlink" x="0px" y="0px" viewBox="0 0 260.8 164.4"
	 style="enable-background:new 0 0 260.8 164.4;" xml:space="preserve">
<sodipodi:namedview  bordercolor="#666666" borderopacity="1" gridtolerance="10" guidetolerance="10" id="namedview3007" inkscape:current-layer="svg3001" inkscape:cx="896" inkscape:cy="896" inkscape:pageopacity="0" inkscape:pageshadow="2" inkscape:window-height="480" inkscape:window-maximized="0" inkscape:window-width="640" inkscape:window-x="0" inkscape:window-y="25" inkscape:zoom="0.13169643" objecttolerance="10" pagecolor="#ffffff" showgrid="false">
	</sodipodi:namedview>
<g id="g3003" transform="matrix(1,0,0,-1,68.338983,1133.5593)">
	<path id="path3005" inkscape:connector-curvature="0" d="M192.5,1099.6c0-5.9-2.1-10.9-6.2-15.1l-109-109
		c-4.2-4.2-9.3-6.4-15.2-6.4c-6,0-11,2.1-15.1,6.4l-109,109c-4.2,4-6.4,9-6.4,15.1c0,5.9,2.1,11,6.4,15.2l12.4,12.6
		c4.4,4.1,9.4,6.2,15.2,6.2c5.9,0,10.9-2.1,15.1-6.2l81.4-81.4l81.4,81.4c4.1,4.1,9.2,6.2,15.1,6.2c5.8,0,10.9-2.1,15.2-6.2
		l12.6-12.6C190.4,1110.5,192.5,1105.4,192.5,1099.6z"/>
</g>
</svg>
