<?xml version="1.0" encoding="UTF-8"?><svg id="svg3001" xmlns="http://www.w3.org/2000/svg" viewBox="0 0 545 345"><g id="g3003"><path id="path3005" d="M538.5,74.25c0,12.05-4.21,22.29-12.63,30.7l-222.29,222.08c-8.65,8.64-19.01,12.96-31.07,12.96s-22.54-4.32-30.73-12.96L19.48,104.95c-8.65-8.19-12.98-18.42-12.98-30.7s4.33-22.4,12.98-31.04l25.27-25.59c8.88-8.41,19.24-12.62,31.07-12.62s22.31,4.21,30.73,12.62l165.95,165.79L438.45,17.62c8.42-8.41,18.67-12.62,30.73-12.62s22.2,4.21,31.07,12.62l25.61,25.59c8.42,8.87,12.63,19.22,12.63,31.04Z"/></g></svg>